# xmcd
#
# Track frame offsets: 
#        150
#        36384
#        49700
#        69254
#        89729
#        115975
#        138461
#        151341
#        166813
#        179855
#        197916
#        212661
#        225403
#
# Disc length: 3176 seconds
#
# Revision: 0
# Processed by: cddbd v1.5.2PL0 Copyright (c) Steve Scherf et al.
# Submitted via: ExactAudioCopy v0.99pb5
#
DISCID=ba0c660d
DTITLE=Cissy Houston - Think It Over
DYEAR=1900
DGENRE=
TTITLE0=Think It Over
TTITLE1=Love Don't Hurt People
TTITLE2=Somebody Should Have Told Me
TTITLE3=After You
TTITLE4=Warning Danger
TTITLE5=I Just Want To Be With You
TTITLE6=An Umbrella Song
TTITLE7=Sometimes
TTITLE8=I Won't Be The One
TTITLE9=Morning Much Better
TTITLE10=Love Is Holding On
TTITLE11=It Never Really Ended
TTITLE12=Love Is Something That Leads You
EXTD=
EXTT0=
EXTT1=
EXTT2=
EXTT3=
EXTT4=
EXTT5=
EXTT6=
EXTT7=
EXTT8=
EXTT9=
EXTT10=
EXTT11=
EXTT12=
PLAYORDER=
